<?xml version="1.0" encoding="UTF-8" standalone="no"?>
<!-- Generator: Adobe Illustrator 18.1.1, SVG Export Plug-In . SVG Version: 6.00 Build 0)  -->

<svg
   xmlns:dc="http://purl.org/dc/elements/1.1/"
   xmlns:cc="http://creativecommons.org/ns#"
   xmlns:rdf="http://www.w3.org/1999/02/22-rdf-syntax-ns#"
   xmlns:svg="http://www.w3.org/2000/svg"
   xmlns="http://www.w3.org/2000/svg"
   xmlns:sodipodi="http://sodipodi.sourceforge.net/DTD/sodipodi-0.dtd"
   xmlns:inkscape="http://www.inkscape.org/namespaces/inkscape"
   version="1.1"
   id="Capa_1"
   x="0px"
   y="0px"
   viewBox="0 0 64 64"
   xml:space="preserve"
   inkscape:version="0.48.4 r9939"
   width="100%"
   height="100%"
   sodipodi:docname="help.svg"><metadata
   id="metadata75"><rdf:RDF><cc:Work
       rdf:about=""><dc:format>image/svg+xml</dc:format><dc:type
         rdf:resource="http://purl.org/dc/dcmitype/StillImage" /></cc:Work></rdf:RDF></metadata><defs
   id="defs73" /><sodipodi:namedview
   pagecolor="#ffffff"
   bordercolor="#666666"
   borderopacity="1"
   objecttolerance="10"
   gridtolerance="10"
   guidetolerance="10"
   inkscape:pageopacity="0"
   inkscape:pageshadow="2"
   inkscape:window-width="1920"
   inkscape:window-height="1058"
   id="namedview71"
   showgrid="false"
   inkscape:zoom="7.403118"
   inkscape:cx="15.205044"
   inkscape:cy="33.407531"
   inkscape:window-x="1912"
   inkscape:window-y="-8"
   inkscape:window-maximized="1"
   inkscape:current-layer="Capa_1" />
<g
   id="g3"
   transform="matrix(2.1160618,0,0,2.1160618,0.74999934,0.75105737)">
	<path
   d="M 14.768,0 C 6.611,0 0,6.609 0,14.768 c 0,8.155 6.611,14.767 14.768,14.767 8.157,0 14.768,-6.612 14.768,-14.767 C 29.535,6.609 22.924,0 14.768,0 z m 0,27.126 C 7.94,27.126 2.407,21.594 2.407,14.767 2.407,7.939 7.94,2.405 14.768,2.405 c 6.826,0 12.359,5.535 12.359,12.362 0,6.827 -5.533,12.359 -12.359,12.359 z"
   id="path5"
   inkscape:connector-curvature="0" />
	<path
   d="m 14.385,19.337 c -1.338,0 -2.289,0.951 -2.289,2.34 0,1.336 0.926,2.339 2.289,2.339 1.414,0 2.314,-1.003 2.314,-2.339 -0.027,-1.389 -0.928,-2.34 -2.314,-2.34 z"
   id="path7"
   inkscape:connector-curvature="0" />
	<path
   d="m 14.742,6.092 c -1.824,0 -3.34,0.513 -4.293,1.053 l 0.875,2.804 c 0.668,-0.462 1.697,-0.772 2.545,-0.772 1.285,0.027 1.879,0.644 1.879,1.543 0,0.85 -0.67,1.697 -1.494,2.701 -1.156,1.364 -1.594,2.701 -1.516,4.012 l 0.025,0.669 h 3.42 v -0.463 c -0.025,-1.158 0.387,-2.162 1.311,-3.215 0.979,-1.08 2.211,-2.366 2.211,-4.321 0,-2.135 -1.566,-4.011 -4.963,-4.011 z"
   id="path9"
   inkscape:connector-curvature="0" />
	<g
   id="g11">
	</g>
	<g
   id="g13">
	</g>
	<g
   id="g15">
	</g>
	<g
   id="g17">
	</g>
	<g
   id="g19">
	</g>
	<g
   id="g21">
	</g>
	<g
   id="g23">
	</g>
	<g
   id="g25">
	</g>
	<g
   id="g27">
	</g>
	<g
   id="g29">
	</g>
	<g
   id="g31">
	</g>
	<g
   id="g33">
	</g>
	<g
   id="g35">
	</g>
	<g
   id="g37">
	</g>
	<g
   id="g39">
	</g>
</g>
<g
   id="g41"
   transform="translate(0,34.464001)">
</g>
<g
   id="g43"
   transform="translate(0,34.464001)">
</g>
<g
   id="g45"
   transform="translate(0,34.464001)">
</g>
<g
   id="g47"
   transform="translate(0,34.464001)">
</g>
<g
   id="g49"
   transform="translate(0,34.464001)">
</g>
<g
   id="g51"
   transform="translate(0,34.464001)">
</g>
<g
   id="g53"
   transform="translate(0,34.464001)">
</g>
<g
   id="g55"
   transform="translate(0,34.464001)">
</g>
<g
   id="g57"
   transform="translate(0,34.464001)">
</g>
<g
   id="g59"
   transform="translate(0,34.464001)">
</g>
<g
   id="g61"
   transform="translate(0,34.464001)">
</g>
<g
   id="g63"
   transform="translate(0,34.464001)">
</g>
<g
   id="g65"
   transform="translate(0,34.464001)">
</g>
<g
   id="g67"
   transform="translate(0,34.464001)">
</g>
<g
   id="g69"
   transform="translate(0,34.464001)">
</g>
</svg>