<?xml version="1.0" encoding="iso-8859-1"?>
<!-- Generator: Adobe Illustrator 18.1.1, SVG Export Plug-In . SVG Version: 6.00 Build 0)  -->
<svg version="1.1" id="Capa_1" xmlns="http://www.w3.org/2000/svg" xmlns:xlink="http://www.w3.org/1999/xlink" x="0px" y="0px"
	 viewBox="0 0 19.497 19.497" style="enable-background:new 0 0 19.497 19.497;" xml:space="preserve">
<g>
	<path style="fill:#030104;" d="M11.25,0L5.71,5.541L5.174,6.076L3.083,8.167l0.029,0.03C2.867,8.619,2.921,9.169,3.283,9.531
		c0,0,0.902,1.684,1.845,2.627c0.942,0.941-1.96,1.578-3.104,2.723c-1.66,1.66-2.533,3.479-1.71,4.301
		c0.824,0.824,2.641-0.049,4.301-1.709c1.145-1.145,1.841-3.986,2.708-3.121c0.867,0.867,2.627,1.846,2.627,1.846
		c0.362,0.361,0.912,0.416,1.334,0.17l0.046,0.047l2.091-2.092l0.536-0.535l5.54-5.541L11.25,0z M10.2,1.812
		c-0.028,0.029-0.058,0.058-0.049,0.042L10.2,1.812z M11.315,15.565L3.933,8.182l1.673-1.673l7.383,7.383L11.315,15.565z
		 M17.598,8.26c-0.197-0.016-1.479-0.128-2.06,0.003c-1.178,0.265-1.691,0.256-1.98-1.541c-0.288-1.797-1.004-1.311-2.841-0.419
		c-2.593,1.258-2.245-2.019-0.483-4.521l0.112-0.096l0.904-0.903l7.464,7.464l-0.272,0.272C18.442,8.52,17.795,8.275,17.598,8.26z"
		/>
</g>
<g>
</g>
<g>
</g>
<g>
</g>
<g>
</g>
<g>
</g>
<g>
</g>
<g>
</g>
<g>
</g>
<g>
</g>
<g>
</g>
<g>
</g>
<g>
</g>
<g>
</g>
<g>
</g>
<g>
</g>
</svg>
